%TF.GenerationSoftware,KiCad,Pcbnew,9.0.0*%
%TF.CreationDate,2025-03-30T20:55:15-06:00*%
%TF.ProjectId,impedance_transformer,696d7065-6461-46e6-9365-5f7472616e73,rev?*%
%TF.SameCoordinates,Original*%
%TF.FileFunction,Copper,L2,Inr*%
%TF.FilePolarity,Positive*%
%FSLAX46Y46*%
G04 Gerber Fmt 4.6, Leading zero omitted, Abs format (unit mm)*
G04 Created by KiCad (PCBNEW 9.0.0) date 2025-03-30 20:55:15*
%MOMM*%
%LPD*%
G01*
G04 APERTURE LIST*
%TA.AperFunction,ComponentPad*%
%ADD10O,2.000000X1.200000*%
%TD*%
%TA.AperFunction,ComponentPad*%
%ADD11C,2.500000*%
%TD*%
%TA.AperFunction,ViaPad*%
%ADD12C,0.600000*%
%TD*%
G04 APERTURE END LIST*
D10*
%TO.N,Net-(J2-In)*%
%TO.C,TR1*%
X115150000Y-77470000D03*
%TO.N,N/C*%
X115150000Y-80010000D03*
%TO.N,GND*%
X115150000Y-82550000D03*
%TO.N,N/C*%
X107630000Y-82550000D03*
X107630000Y-80010000D03*
%TO.N,Net-(J1-In)*%
X107630000Y-77470000D03*
%TD*%
D11*
%TO.N,GND*%
%TO.C,J2*%
X125995000Y-77470000D03*
X120915000Y-77470000D03*
X125995000Y-82550000D03*
X120915000Y-82550000D03*
%TD*%
%TO.N,GND*%
%TO.C,J1*%
X96785000Y-82540000D03*
X101865000Y-82540000D03*
X96785000Y-77460000D03*
X101865000Y-77460000D03*
%TD*%
D12*
%TO.N,GND*%
X106310000Y-76200000D03*
X118375000Y-76835000D03*
X118375000Y-83185000D03*
X104405000Y-76835000D03*
X104405000Y-83185000D03*
X124090000Y-82550000D03*
X111390000Y-82550000D03*
X119010000Y-77470000D03*
X99960000Y-77470000D03*
X111390000Y-83820000D03*
X99960000Y-82550000D03*
X115200000Y-76200000D03*
X105040000Y-83820000D03*
X122820000Y-77470000D03*
X111390000Y-81280000D03*
X108850000Y-83820000D03*
X96785000Y-79375000D03*
X110120000Y-83820000D03*
X111390000Y-78740000D03*
X111390000Y-76200000D03*
X125995000Y-80645000D03*
X98690000Y-82550000D03*
X107580000Y-83820000D03*
X107580000Y-76200000D03*
X96785000Y-80645000D03*
X117740000Y-76200000D03*
X113930000Y-76200000D03*
X112660000Y-83820000D03*
X106310000Y-83820000D03*
X112660000Y-76200000D03*
X113930000Y-83820000D03*
X108850000Y-76200000D03*
X116470000Y-76200000D03*
X119010000Y-82550000D03*
X103770000Y-82550000D03*
X105040000Y-76200000D03*
X111390000Y-80010000D03*
X117740000Y-83820000D03*
X110120000Y-76200000D03*
X98690000Y-77470000D03*
X111390000Y-77470000D03*
X125995000Y-79375000D03*
X103770000Y-77470000D03*
X115200000Y-83820000D03*
X124090000Y-77470000D03*
X122820000Y-82550000D03*
X116470000Y-83820000D03*
%TD*%
%TA.AperFunction,Conductor*%
%TO.N,GND*%
G36*
X127589039Y-75838685D02*
G01*
X127634794Y-75891489D01*
X127646000Y-75943000D01*
X127646000Y-84077000D01*
X127626315Y-84144039D01*
X127573511Y-84189794D01*
X127522000Y-84201000D01*
X95258000Y-84201000D01*
X95190961Y-84181315D01*
X95145206Y-84128511D01*
X95134000Y-84077000D01*
X95134000Y-82463389D01*
X106129500Y-82463389D01*
X106129500Y-82636611D01*
X106156598Y-82807701D01*
X106210127Y-82972445D01*
X106288768Y-83126788D01*
X106390586Y-83266928D01*
X106513072Y-83389414D01*
X106653212Y-83491232D01*
X106807555Y-83569873D01*
X106972299Y-83623402D01*
X107143389Y-83650500D01*
X107143390Y-83650500D01*
X108116610Y-83650500D01*
X108116611Y-83650500D01*
X108287701Y-83623402D01*
X108452445Y-83569873D01*
X108606788Y-83491232D01*
X108746928Y-83389414D01*
X108869414Y-83266928D01*
X108971232Y-83126788D01*
X109049873Y-82972445D01*
X109103402Y-82807701D01*
X109130500Y-82636611D01*
X109130500Y-82463389D01*
X109103402Y-82292299D01*
X109049873Y-82127555D01*
X108971232Y-81973212D01*
X108869414Y-81833072D01*
X108746928Y-81710586D01*
X108606788Y-81608768D01*
X108452445Y-81530127D01*
X108287701Y-81476598D01*
X108287699Y-81476597D01*
X108287698Y-81476597D01*
X108156271Y-81455781D01*
X108116611Y-81449500D01*
X107143389Y-81449500D01*
X107103728Y-81455781D01*
X106972302Y-81476597D01*
X106807552Y-81530128D01*
X106653211Y-81608768D01*
X106573256Y-81666859D01*
X106513072Y-81710586D01*
X106513070Y-81710588D01*
X106513069Y-81710588D01*
X106390588Y-81833069D01*
X106390588Y-81833070D01*
X106390586Y-81833072D01*
X106346859Y-81893256D01*
X106288768Y-81973211D01*
X106210128Y-82127552D01*
X106156597Y-82292302D01*
X106129500Y-82463389D01*
X95134000Y-82463389D01*
X95134000Y-79901577D01*
X98074500Y-79901577D01*
X98074500Y-80098422D01*
X98105290Y-80292826D01*
X98166117Y-80480029D01*
X98220514Y-80586788D01*
X98255476Y-80655405D01*
X98371172Y-80814646D01*
X98510354Y-80953828D01*
X98669595Y-81069524D01*
X98750015Y-81110500D01*
X98844970Y-81158882D01*
X98844972Y-81158882D01*
X98844975Y-81158884D01*
X98875752Y-81168884D01*
X99032173Y-81219709D01*
X99226578Y-81250500D01*
X99226583Y-81250500D01*
X99423422Y-81250500D01*
X99617826Y-81219709D01*
X99805025Y-81158884D01*
X99980405Y-81069524D01*
X100139646Y-80953828D01*
X100278828Y-80814646D01*
X100394524Y-80655405D01*
X100483884Y-80480025D01*
X100544709Y-80292826D01*
X100548689Y-80267697D01*
X100575500Y-80098422D01*
X100575500Y-79923389D01*
X106129500Y-79923389D01*
X106129500Y-80096611D01*
X106156598Y-80267701D01*
X106210127Y-80432445D01*
X106288768Y-80586788D01*
X106390586Y-80726928D01*
X106513072Y-80849414D01*
X106653212Y-80951232D01*
X106807555Y-81029873D01*
X106972299Y-81083402D01*
X107143389Y-81110500D01*
X107143390Y-81110500D01*
X108116610Y-81110500D01*
X108116611Y-81110500D01*
X108287701Y-81083402D01*
X108452445Y-81029873D01*
X108606788Y-80951232D01*
X108746928Y-80849414D01*
X108869414Y-80726928D01*
X108971232Y-80586788D01*
X109049873Y-80432445D01*
X109103402Y-80267701D01*
X109130500Y-80096611D01*
X109130500Y-79923389D01*
X113649500Y-79923389D01*
X113649500Y-80096611D01*
X113676598Y-80267701D01*
X113730127Y-80432445D01*
X113808768Y-80586788D01*
X113910586Y-80726928D01*
X114033072Y-80849414D01*
X114173212Y-80951232D01*
X114327555Y-81029873D01*
X114492299Y-81083402D01*
X114663389Y-81110500D01*
X114663390Y-81110500D01*
X115636610Y-81110500D01*
X115636611Y-81110500D01*
X115807701Y-81083402D01*
X115972445Y-81029873D01*
X116126788Y-80951232D01*
X116266928Y-80849414D01*
X116389414Y-80726928D01*
X116491232Y-80586788D01*
X116569873Y-80432445D01*
X116623402Y-80267701D01*
X116650500Y-80096611D01*
X116650500Y-79923389D01*
X116648629Y-79911577D01*
X122204500Y-79911577D01*
X122204500Y-80108422D01*
X122235290Y-80302826D01*
X122296117Y-80490029D01*
X122380381Y-80655405D01*
X122385476Y-80665405D01*
X122501172Y-80824646D01*
X122640354Y-80963828D01*
X122799595Y-81079524D01*
X122860389Y-81110500D01*
X122974970Y-81168882D01*
X122974972Y-81168882D01*
X122974975Y-81168884D01*
X123075317Y-81201487D01*
X123162173Y-81229709D01*
X123356578Y-81260500D01*
X123356583Y-81260500D01*
X123553422Y-81260500D01*
X123747826Y-81229709D01*
X123935025Y-81168884D01*
X124110405Y-81079524D01*
X124269646Y-80963828D01*
X124408828Y-80824646D01*
X124524524Y-80665405D01*
X124613884Y-80490025D01*
X124674709Y-80302826D01*
X124680273Y-80267697D01*
X124705500Y-80108422D01*
X124705500Y-79911577D01*
X124674709Y-79717173D01*
X124613882Y-79529970D01*
X124524523Y-79354594D01*
X124408828Y-79195354D01*
X124269646Y-79056172D01*
X124110405Y-78940476D01*
X124049611Y-78909500D01*
X123935029Y-78851117D01*
X123747826Y-78790290D01*
X123553422Y-78759500D01*
X123553417Y-78759500D01*
X123356583Y-78759500D01*
X123356578Y-78759500D01*
X123162173Y-78790290D01*
X122974970Y-78851117D01*
X122799594Y-78940476D01*
X122731255Y-78990128D01*
X122640354Y-79056172D01*
X122640352Y-79056174D01*
X122640351Y-79056174D01*
X122501174Y-79195351D01*
X122501174Y-79195352D01*
X122501172Y-79195354D01*
X122451485Y-79263741D01*
X122385476Y-79354594D01*
X122296117Y-79529970D01*
X122235290Y-79717173D01*
X122204500Y-79911577D01*
X116648629Y-79911577D01*
X116623402Y-79752299D01*
X116569873Y-79587555D01*
X116491232Y-79433212D01*
X116389414Y-79293072D01*
X116266928Y-79170586D01*
X116126788Y-79068768D01*
X115972445Y-78990127D01*
X115807701Y-78936598D01*
X115807699Y-78936597D01*
X115807698Y-78936597D01*
X115676271Y-78915781D01*
X115636611Y-78909500D01*
X114663389Y-78909500D01*
X114623728Y-78915781D01*
X114492302Y-78936597D01*
X114327552Y-78990128D01*
X114173211Y-79068768D01*
X114093256Y-79126859D01*
X114033072Y-79170586D01*
X114033070Y-79170588D01*
X114033069Y-79170588D01*
X113910588Y-79293069D01*
X113910588Y-79293070D01*
X113910586Y-79293072D01*
X113873153Y-79344594D01*
X113808768Y-79433211D01*
X113730128Y-79587552D01*
X113676597Y-79752302D01*
X113652955Y-79901577D01*
X113649500Y-79923389D01*
X109130500Y-79923389D01*
X109103402Y-79752299D01*
X109049873Y-79587555D01*
X108971232Y-79433212D01*
X108869414Y-79293072D01*
X108746928Y-79170586D01*
X108606788Y-79068768D01*
X108452445Y-78990127D01*
X108287701Y-78936598D01*
X108287699Y-78936597D01*
X108287698Y-78936597D01*
X108156271Y-78915781D01*
X108116611Y-78909500D01*
X107143389Y-78909500D01*
X107103728Y-78915781D01*
X106972302Y-78936597D01*
X106807552Y-78990128D01*
X106653211Y-79068768D01*
X106573256Y-79126859D01*
X106513072Y-79170586D01*
X106513070Y-79170588D01*
X106513069Y-79170588D01*
X106390588Y-79293069D01*
X106390588Y-79293070D01*
X106390586Y-79293072D01*
X106353153Y-79344594D01*
X106288768Y-79433211D01*
X106210128Y-79587552D01*
X106156597Y-79752302D01*
X106132955Y-79901577D01*
X106129500Y-79923389D01*
X100575500Y-79923389D01*
X100575500Y-79901577D01*
X100544709Y-79707173D01*
X100487133Y-79529975D01*
X100483884Y-79519975D01*
X100483882Y-79519972D01*
X100483882Y-79519970D01*
X100399619Y-79354595D01*
X100394524Y-79344595D01*
X100278828Y-79185354D01*
X100139646Y-79046172D01*
X99980405Y-78930476D01*
X99939237Y-78909500D01*
X99805029Y-78841117D01*
X99617826Y-78780290D01*
X99423422Y-78749500D01*
X99423417Y-78749500D01*
X99226583Y-78749500D01*
X99226578Y-78749500D01*
X99032173Y-78780290D01*
X98844970Y-78841117D01*
X98669594Y-78930476D01*
X98578741Y-78996485D01*
X98510354Y-79046172D01*
X98510352Y-79046174D01*
X98510351Y-79046174D01*
X98371174Y-79185351D01*
X98371174Y-79185352D01*
X98371172Y-79185354D01*
X98363909Y-79195351D01*
X98255476Y-79344594D01*
X98166117Y-79519970D01*
X98105290Y-79707173D01*
X98074500Y-79901577D01*
X95134000Y-79901577D01*
X95134000Y-77383389D01*
X106129500Y-77383389D01*
X106129500Y-77556611D01*
X106156598Y-77727701D01*
X106210127Y-77892445D01*
X106288768Y-78046788D01*
X106390586Y-78186928D01*
X106513072Y-78309414D01*
X106653212Y-78411232D01*
X106807555Y-78489873D01*
X106972299Y-78543402D01*
X107143389Y-78570500D01*
X107143390Y-78570500D01*
X108116610Y-78570500D01*
X108116611Y-78570500D01*
X108287701Y-78543402D01*
X108452445Y-78489873D01*
X108606788Y-78411232D01*
X108746928Y-78309414D01*
X108869414Y-78186928D01*
X108971232Y-78046788D01*
X109049873Y-77892445D01*
X109103402Y-77727701D01*
X109130500Y-77556611D01*
X109130500Y-77383389D01*
X113649500Y-77383389D01*
X113649500Y-77556611D01*
X113676598Y-77727701D01*
X113730127Y-77892445D01*
X113808768Y-78046788D01*
X113910586Y-78186928D01*
X114033072Y-78309414D01*
X114173212Y-78411232D01*
X114327555Y-78489873D01*
X114492299Y-78543402D01*
X114663389Y-78570500D01*
X114663390Y-78570500D01*
X115636610Y-78570500D01*
X115636611Y-78570500D01*
X115807701Y-78543402D01*
X115972445Y-78489873D01*
X116126788Y-78411232D01*
X116266928Y-78309414D01*
X116389414Y-78186928D01*
X116491232Y-78046788D01*
X116569873Y-77892445D01*
X116623402Y-77727701D01*
X116650500Y-77556611D01*
X116650500Y-77383389D01*
X116623402Y-77212299D01*
X116569873Y-77047555D01*
X116491232Y-76893212D01*
X116389414Y-76753072D01*
X116266928Y-76630586D01*
X116126788Y-76528768D01*
X115972445Y-76450127D01*
X115807701Y-76396598D01*
X115807699Y-76396597D01*
X115807698Y-76396597D01*
X115676271Y-76375781D01*
X115636611Y-76369500D01*
X114663389Y-76369500D01*
X114623728Y-76375781D01*
X114492302Y-76396597D01*
X114327552Y-76450128D01*
X114173211Y-76528768D01*
X114093256Y-76586859D01*
X114033072Y-76630586D01*
X114033070Y-76630588D01*
X114033069Y-76630588D01*
X113910588Y-76753069D01*
X113910588Y-76753070D01*
X113910586Y-76753072D01*
X113866859Y-76813256D01*
X113808768Y-76893211D01*
X113730128Y-77047552D01*
X113676597Y-77212302D01*
X113649500Y-77383389D01*
X109130500Y-77383389D01*
X109103402Y-77212299D01*
X109049873Y-77047555D01*
X108971232Y-76893212D01*
X108869414Y-76753072D01*
X108746928Y-76630586D01*
X108606788Y-76528768D01*
X108452445Y-76450127D01*
X108287701Y-76396598D01*
X108287699Y-76396597D01*
X108287698Y-76396597D01*
X108156271Y-76375781D01*
X108116611Y-76369500D01*
X107143389Y-76369500D01*
X107103728Y-76375781D01*
X106972302Y-76396597D01*
X106807552Y-76450128D01*
X106653211Y-76528768D01*
X106573256Y-76586859D01*
X106513072Y-76630586D01*
X106513070Y-76630588D01*
X106513069Y-76630588D01*
X106390588Y-76753069D01*
X106390588Y-76753070D01*
X106390586Y-76753072D01*
X106346859Y-76813256D01*
X106288768Y-76893211D01*
X106210128Y-77047552D01*
X106156597Y-77212302D01*
X106129500Y-77383389D01*
X95134000Y-77383389D01*
X95134000Y-75943000D01*
X95153685Y-75875961D01*
X95206489Y-75830206D01*
X95258000Y-75819000D01*
X127522000Y-75819000D01*
X127589039Y-75838685D01*
G37*
%TD.AperFunction*%
%TD*%
M02*
