%TF.GenerationSoftware,KiCad,Pcbnew,9.0.0*%
%TF.CreationDate,2025-03-30T20:55:15-06:00*%
%TF.ProjectId,impedance_transformer,696d7065-6461-46e6-9365-5f7472616e73,rev?*%
%TF.SameCoordinates,Original*%
%TF.FileFunction,Legend,Top*%
%TF.FilePolarity,Positive*%
%FSLAX46Y46*%
G04 Gerber Fmt 4.6, Leading zero omitted, Abs format (unit mm)*
G04 Created by KiCad (PCBNEW 9.0.0) date 2025-03-30 20:55:15*
%MOMM*%
%LPD*%
G01*
G04 APERTURE LIST*
%ADD10C,0.150000*%
%ADD11C,0.120000*%
G04 APERTURE END LIST*
D10*
X110844819Y-82962380D02*
X110844819Y-82390952D01*
X111844819Y-82676666D02*
X110844819Y-82676666D01*
X111844819Y-81533809D02*
X111844819Y-82105237D01*
X111844819Y-81819523D02*
X110844819Y-81819523D01*
X110844819Y-81819523D02*
X110987676Y-81914761D01*
X110987676Y-81914761D02*
X111082914Y-82009999D01*
X111082914Y-82009999D02*
X111130533Y-82105237D01*
X111178152Y-80676666D02*
X111844819Y-80676666D01*
X110797200Y-80914761D02*
X111511485Y-81152856D01*
X111511485Y-81152856D02*
X111511485Y-80533809D01*
X111463866Y-80152856D02*
X111463866Y-79390952D01*
X111844819Y-78390952D02*
X111844819Y-78962380D01*
X111844819Y-78676666D02*
X110844819Y-78676666D01*
X110844819Y-78676666D02*
X110987676Y-78771904D01*
X110987676Y-78771904D02*
X111082914Y-78867142D01*
X111082914Y-78867142D02*
X111130533Y-78962380D01*
X111463866Y-77962380D02*
X111463866Y-77200476D01*
X111844819Y-77581428D02*
X111082914Y-77581428D01*
X117909819Y-82033809D02*
X117909819Y-81843333D01*
X117909819Y-81843333D02*
X117957438Y-81748095D01*
X117957438Y-81748095D02*
X118052676Y-81652857D01*
X118052676Y-81652857D02*
X118243152Y-81605238D01*
X118243152Y-81605238D02*
X118576485Y-81605238D01*
X118576485Y-81605238D02*
X118766961Y-81652857D01*
X118766961Y-81652857D02*
X118862200Y-81748095D01*
X118862200Y-81748095D02*
X118909819Y-81843333D01*
X118909819Y-81843333D02*
X118909819Y-82033809D01*
X118909819Y-82033809D02*
X118862200Y-82129047D01*
X118862200Y-82129047D02*
X118766961Y-82224285D01*
X118766961Y-82224285D02*
X118576485Y-82271904D01*
X118576485Y-82271904D02*
X118243152Y-82271904D01*
X118243152Y-82271904D02*
X118052676Y-82224285D01*
X118052676Y-82224285D02*
X117957438Y-82129047D01*
X117957438Y-82129047D02*
X117909819Y-82033809D01*
X118243152Y-80748095D02*
X118909819Y-80748095D01*
X118243152Y-81176666D02*
X118766961Y-81176666D01*
X118766961Y-81176666D02*
X118862200Y-81129047D01*
X118862200Y-81129047D02*
X118909819Y-81033809D01*
X118909819Y-81033809D02*
X118909819Y-80890952D01*
X118909819Y-80890952D02*
X118862200Y-80795714D01*
X118862200Y-80795714D02*
X118814580Y-80748095D01*
X118243152Y-80414761D02*
X118243152Y-80033809D01*
X117909819Y-80271904D02*
X118766961Y-80271904D01*
X118766961Y-80271904D02*
X118862200Y-80224285D01*
X118862200Y-80224285D02*
X118909819Y-80129047D01*
X118909819Y-80129047D02*
X118909819Y-80033809D01*
X118243152Y-79700475D02*
X119243152Y-79700475D01*
X118290771Y-79700475D02*
X118243152Y-79605237D01*
X118243152Y-79605237D02*
X118243152Y-79414761D01*
X118243152Y-79414761D02*
X118290771Y-79319523D01*
X118290771Y-79319523D02*
X118338390Y-79271904D01*
X118338390Y-79271904D02*
X118433628Y-79224285D01*
X118433628Y-79224285D02*
X118719342Y-79224285D01*
X118719342Y-79224285D02*
X118814580Y-79271904D01*
X118814580Y-79271904D02*
X118862200Y-79319523D01*
X118862200Y-79319523D02*
X118909819Y-79414761D01*
X118909819Y-79414761D02*
X118909819Y-79605237D01*
X118909819Y-79605237D02*
X118862200Y-79700475D01*
X118243152Y-78367142D02*
X118909819Y-78367142D01*
X118243152Y-78795713D02*
X118766961Y-78795713D01*
X118766961Y-78795713D02*
X118862200Y-78748094D01*
X118862200Y-78748094D02*
X118909819Y-78652856D01*
X118909819Y-78652856D02*
X118909819Y-78509999D01*
X118909819Y-78509999D02*
X118862200Y-78414761D01*
X118862200Y-78414761D02*
X118814580Y-78367142D01*
X118243152Y-78033808D02*
X118243152Y-77652856D01*
X117909819Y-77890951D02*
X118766961Y-77890951D01*
X118766961Y-77890951D02*
X118862200Y-77843332D01*
X118862200Y-77843332D02*
X118909819Y-77748094D01*
X118909819Y-77748094D02*
X118909819Y-77652856D01*
X104779819Y-81642856D02*
X103779819Y-81642856D01*
X104113152Y-81166666D02*
X104779819Y-81166666D01*
X104208390Y-81166666D02*
X104160771Y-81119047D01*
X104160771Y-81119047D02*
X104113152Y-81023809D01*
X104113152Y-81023809D02*
X104113152Y-80880952D01*
X104113152Y-80880952D02*
X104160771Y-80785714D01*
X104160771Y-80785714D02*
X104256009Y-80738095D01*
X104256009Y-80738095D02*
X104779819Y-80738095D01*
X104113152Y-80261904D02*
X105113152Y-80261904D01*
X104160771Y-80261904D02*
X104113152Y-80166666D01*
X104113152Y-80166666D02*
X104113152Y-79976190D01*
X104113152Y-79976190D02*
X104160771Y-79880952D01*
X104160771Y-79880952D02*
X104208390Y-79833333D01*
X104208390Y-79833333D02*
X104303628Y-79785714D01*
X104303628Y-79785714D02*
X104589342Y-79785714D01*
X104589342Y-79785714D02*
X104684580Y-79833333D01*
X104684580Y-79833333D02*
X104732200Y-79880952D01*
X104732200Y-79880952D02*
X104779819Y-79976190D01*
X104779819Y-79976190D02*
X104779819Y-80166666D01*
X104779819Y-80166666D02*
X104732200Y-80261904D01*
X104113152Y-78928571D02*
X104779819Y-78928571D01*
X104113152Y-79357142D02*
X104636961Y-79357142D01*
X104636961Y-79357142D02*
X104732200Y-79309523D01*
X104732200Y-79309523D02*
X104779819Y-79214285D01*
X104779819Y-79214285D02*
X104779819Y-79071428D01*
X104779819Y-79071428D02*
X104732200Y-78976190D01*
X104732200Y-78976190D02*
X104684580Y-78928571D01*
X104113152Y-78595237D02*
X104113152Y-78214285D01*
X103779819Y-78452380D02*
X104636961Y-78452380D01*
X104636961Y-78452380D02*
X104732200Y-78404761D01*
X104732200Y-78404761D02*
X104779819Y-78309523D01*
X104779819Y-78309523D02*
X104779819Y-78214285D01*
D11*
%TO.C,TR1*%
X106130000Y-76370000D02*
X106130000Y-83649999D01*
X106130000Y-83649999D02*
X116650000Y-83650000D01*
X109636667Y-76370000D02*
X106130000Y-76370000D01*
X109636667Y-76730000D02*
X109636667Y-76370000D01*
X113143333Y-76370000D02*
X113143333Y-76730000D01*
X113143333Y-76730000D02*
X109636667Y-76730000D01*
X116650000Y-76370001D02*
X113143333Y-76370000D01*
X116650000Y-83650000D02*
X116650000Y-76370001D01*
%TO.C,J2*%
X119355000Y-75910000D02*
X119355000Y-84110000D01*
X122955000Y-75910000D02*
X123455000Y-76410000D01*
X123455000Y-76410000D02*
X123955000Y-75910000D01*
X127555000Y-75910000D02*
X119355000Y-75910000D01*
X127555000Y-75910000D02*
X127555000Y-84110000D01*
X127555000Y-84110000D02*
X119355000Y-84110000D01*
%TO.C,J1*%
X95225000Y-75900000D02*
X103425000Y-75900000D01*
X95225000Y-84100000D02*
X95225000Y-75900000D01*
X95225000Y-84100000D02*
X103425000Y-84100000D01*
X99325000Y-83600000D02*
X98825000Y-84100000D01*
X99825000Y-84100000D02*
X99325000Y-83600000D01*
X103425000Y-84100000D02*
X103425000Y-75900000D01*
%TD*%
M02*
