M48
; DRILL file {KiCad 9.0.0} date 2025-03-30T20:55:26-0600
; FORMAT={-:-/ absolute / metric / decimal}
; #@! TF.CreationDate,2025-03-30T20:55:26-06:00
; #@! TF.GenerationSoftware,Kicad,Pcbnew,9.0.0
; #@! TF.FileFunction,Plated,1,4,PTH
FMAT,2
METRIC
; #@! TA.AperFunction,Plated,PTH,ViaDrill
T1C0.300
; #@! TA.AperFunction,Plated,PTH,ComponentDrill
T2C0.800
; #@! TA.AperFunction,Plated,PTH,ComponentDrill
T3C1.500
; #@! TA.AperFunction,Plated,PTH,ComponentDrill
T4C1.700
%
G90
G05
T1
X96.785Y-79.375
X96.785Y-80.645
X98.69Y-77.47
X98.69Y-82.55
X99.96Y-77.47
X99.96Y-82.55
X103.77Y-77.47
X103.77Y-82.55
X104.405Y-76.835
X104.405Y-83.185
X105.04Y-76.2
X105.04Y-83.82
X106.31Y-76.2
X106.31Y-83.82
X107.58Y-76.2
X107.58Y-83.82
X108.85Y-76.2
X108.85Y-83.82
X110.12Y-76.2
X110.12Y-83.82
X111.39Y-76.2
X111.39Y-77.47
X111.39Y-78.74
X111.39Y-80.01
X111.39Y-81.28
X111.39Y-82.55
X111.39Y-83.82
X112.66Y-76.2
X112.66Y-83.82
X113.93Y-76.2
X113.93Y-83.82
X115.2Y-76.2
X115.2Y-83.82
X116.47Y-76.2
X116.47Y-83.82
X117.74Y-76.2
X117.74Y-83.82
X118.375Y-76.835
X118.375Y-83.185
X119.01Y-77.47
X119.01Y-82.55
X122.82Y-77.47
X122.82Y-82.55
X124.09Y-77.47
X124.09Y-82.55
X125.995Y-79.375
X125.995Y-80.645
T2
X107.63Y-77.47
X107.63Y-80.01
X107.63Y-82.55
X115.15Y-77.47
X115.15Y-80.01
X115.15Y-82.55
T3
X99.325Y-80.0
X123.455Y-80.01
T4
X96.785Y-77.46
X96.785Y-82.54
X101.865Y-77.46
X101.865Y-82.54
X120.915Y-77.47
X120.915Y-82.55
X125.995Y-77.47
X125.995Y-82.55
M30
